HIERARCHY
ROOT root
{
	OFFSET 0.000000 0.000000 0.000000
	CHANNELS 6 Xposition Yposition Zposition Zrotation Yrotation Xrotation
	JOINT lhip
	{
		OFFSET 0.058581 -0.082280 -0.017664
		CHANNELS 3 Zrotation Yrotation Xrotation
		JOINT lknee
		{
			OFFSET 0.043451 -0.386469 0.008037
			CHANNELS 3 Zrotation Yrotation Xrotation
			JOINT lankle
			{
				OFFSET -0.014790 -0.426874 -0.037428
				CHANNELS 3 Zrotation Yrotation Xrotation
				JOINT ltoe
				{
					OFFSET 0.041054 -0.060286 0.122042
					CHANNELS 3 Zrotation Yrotation Xrotation
					End Site
					{
						OFFSET 0.000000 0.000000 0.000000
					}
				}
			}
		}
	}
	JOINT rhip
	{
		OFFSET -0.060310 -0.090513 -0.013543
		CHANNELS 3 Zrotation Yrotation Xrotation
		JOINT rknee
		{
			OFFSET -0.043257 -0.383688 -0.004843
			CHANNELS 3 Zrotation Yrotation Xrotation
			JOINT rankle
			{
				OFFSET 0.019056 -0.420046 -0.034562
				CHANNELS 3 Zrotation Yrotation Xrotation
				JOINT rtoe
				{
					OFFSET -0.034840 -0.062106 0.130323
					CHANNELS 3 Zrotation Yrotation Xrotation
					End Site
					{
						OFFSET 0.000000 0.000000 0.000000
					}
				}
			}
		}
	}
	JOINT lowerback
	{
		OFFSET 0.004439 0.124404 -0.038385
		CHANNELS 3 Zrotation Yrotation Xrotation
		JOINT upperback
		{
			OFFSET 0.004488 0.137956 0.026820
			CHANNELS 3 Zrotation Yrotation Xrotation
			JOINT chest
			{
				OFFSET -0.002265 0.056032 0.002855
				CHANNELS 3 Zrotation Yrotation Xrotation
				JOINT lowerneck
				{
					OFFSET -0.013390 0.211636 -0.033468
					CHANNELS 3 Zrotation Yrotation Xrotation
					JOINT upperneck
					{
						OFFSET 0.010113 0.088937 0.050410
						CHANNELS 3 Zrotation Yrotation Xrotation
						End Site
						{
							OFFSET 0.000000 0.000000 0.000000
						}
					}
				}
				JOINT lclavicle
				{
					OFFSET 0.071702 0.114000 -0.018898
					CHANNELS 3 Zrotation Yrotation Xrotation
					JOINT lshoulder
					{
						OFFSET 0.122921 0.045205 -0.019046
						CHANNELS 3 Zrotation Yrotation Xrotation
						JOINT lelbow
						{
							OFFSET 0.255332 -0.015649 -0.022946
							CHANNELS 3 Zrotation Yrotation Xrotation
							JOINT lwrist
							{
								OFFSET 0.265709 0.012698 -0.007375
								CHANNELS 3 Zrotation Yrotation Xrotation
								End Site
								{
									OFFSET 0.000000 0.000000 0.000000
								}
							}
						}
					}
				}
				JOINT rclavicle
				{
					OFFSET -0.082954 0.112472 -0.023707
					CHANNELS 3 Zrotation Yrotation Xrotation
					JOINT rshoulder
					{
						OFFSET -0.113228 0.046853 -0.008472
						CHANNELS 3 Zrotation Yrotation Xrotation
						JOINT relbow
						{
							OFFSET -0.260127 -0.014369 -0.031269
							CHANNELS 3 Zrotation Yrotation Xrotation
							JOINT rwrist
							{
								OFFSET -0.269108 0.006794 -0.006027
								CHANNELS 3 Zrotation Yrotation Xrotation
								End Site
								{
									OFFSET 0.000000 0.000000 0.000000
								}
							}
						}
					}
				}
			}
		}
	}
}
MOTION
Frames: 11
Frame Time: 0.033333
-0.471850 0.676853 0.961717 87.521055 -2.093414 91.974875 8.358640 -0.545442 -14.971220 -4.176434 -8.237304 25.374653 -2.938552 13.351042 -21.674705 0.000000 -0.000000 0.000000 2.728771 -0.255881 -13.865714 -3.634317 0.654391 30.298188 3.213360 -17.282091 -32.137635 0.000000 -0.000000 0.000000 -3.066041 -1.121745 12.843617 2.602749 -3.223208 -8.503275 2.422284 -3.025927 1.849751 2.374799 4.896769 -0.903277 -1.608323 1.139290 -0.337524 -0.635954 11.154634 -9.637678 -12.330563 -3.760398 -15.953532 60.319474 -60.779594 -35.268402 -28.615497 -5.230127 9.211570 -3.469035 -11.770945 -11.932265 10.683383 4.636945 -7.669138 -59.869860 66.453750 -31.530442 41.469633 6.736066 -3.835414 
-0.471153 0.676814 0.962140 87.024507 -1.848480 91.664351 8.383438 -0.715954 -13.903791 -3.540728 -7.705454 24.386716 -2.989662 12.538101 -21.947161 0.000000 -0.000000 0.000000 2.673577 0.325836 -13.001668 -3.716974 -0.120927 29.407826 2.689359 -16.708742 -31.932404 0.000000 -0.000000 0.000000 -2.847936 -1.583176 13.374403 2.353788 -3.459004 -9.331405 2.885901 -2.476522 1.223210 0.605012 2.474615 0.099513 -0.440510 4.257749 0.486253 -0.754869 9.646588 -9.511710 -15.128022 -1.394370 -18.072916 76.397400 -60.827049 -49.856324 -33.791402 -1.634883 10.102836 -3.246018 -8.776260 -11.872349 13.005866 3.685785 -11.578952 -77.454874 65.653100 -49.356165 52.511580 5.415379 0.473162 
-0.471375 0.676728 0.961616 86.104238 -1.635073 91.881627 8.453904 -0.200998 -13.476742 -2.980851 -6.932196 23.540580 -2.967096 11.733492 -22.366711 0.000000 -0.000000 0.000000 2.903136 0.606021 -13.192524 -4.256973 -0.402288 29.075022 2.311467 -15.753843 -32.193130 0.000000 -0.000000 0.000000 -2.636423 -1.712257 13.128178 2.425925 -3.164461 -9.975753 2.839501 -1.993245 1.057957 0.619858 3.098041 0.013392 -0.848207 3.923562 1.477596 -2.110259 9.815327 -9.908693 -16.609115 -2.008872 -18.887348 87.500078 -59.470453 -59.116579 -33.644703 -1.145756 11.160693 -1.080840 -7.930778 -12.126270 13.118590 6.015140 -13.612698 -88.058262 63.208305 -59.036056 51.824878 4.593777 1.746448 
-0.471731 0.676620 0.961213 85.420252 -1.752056 92.301350 8.339334 -0.186489 -13.356873 -2.564880 -5.951608 22.652039 -2.986436 11.066104 -22.239744 0.000000 -0.000000 0.000000 2.683111 0.689606 -13.479937 -4.505932 -0.816477 28.500905 1.885707 -14.999414 -32.443400 0.000000 -0.000000 0.000000 -2.691560 -1.630758 12.354171 2.405194 -3.059752 -9.859232 2.592847 -1.298510 0.386315 0.679020 3.309493 0.417797 -0.765134 2.995746 2.223367 -3.488784 9.503528 -10.545205 -17.123227 -2.907633 -19.137241 95.443889 -58.134441 -65.030834 -34.084356 0.321210 11.620976 1.085533 -6.878487 -11.960321 12.994618 7.303984 -15.120597 -95.751189 60.509448 -64.950267 50.876258 3.463164 2.515340 
-0.471942 0.675985 0.961425 85.068861 -2.003613 92.475563 8.127823 -0.359984 -13.152631 -2.392592 -5.362166 21.992881 -3.006802 10.639951 -21.962621 0.000000 -0.000000 0.000000 2.518160 0.543186 -13.451961 -4.824383 -0.655162 27.905593 1.634448 -14.579566 -32.453863 0.000000 -0.000000 0.000000 -2.624988 -1.389994 11.296959 1.905121 -2.901060 -9.443186 2.054707 -0.723848 -0.164670 0.851899 3.317340 0.672733 -0.165174 2.310627 3.427112 -4.965439 8.101419 -11.089571 -16.186967 -4.253635 -19.351062 99.522494 -56.773565 -68.505272 -35.386794 1.985019 12.451611 2.913736 -5.601138 -11.040971 12.601432 7.461250 -16.280798 -98.596528 58.519786 -67.158773 50.203382 2.093949 3.614006 
-0.471998 0.675513 0.961554 85.000382 -2.242908 92.449578 7.850180 -0.413720 -12.750526 -2.165847 -5.161928 21.289591 -2.631805 10.426287 -21.944332 0.000000 -0.000000 0.000000 2.400781 0.225378 -13.054760 -5.195700 -0.663204 27.113333 1.660431 -14.027968 -32.410665 0.000000 -0.000000 0.000000 -2.288078 -1.159325 10.234071 0.965188 -2.641646 -9.150933 1.381214 0.003751 -0.290448 0.671663 2.421011 1.604782 0.986631 1.435067 3.550463 -5.330800 6.672747 -12.273326 -15.472635 -6.728876 -19.082323 99.262891 -56.722897 -68.139247 -35.969918 3.963013 13.455759 2.868804 -4.401048 -10.224399 13.281619 6.940188 -16.887775 -93.245384 57.292228 -63.480479 49.160430 2.289911 2.432987 
-0.471770 0.674946 0.961736 85.514296 -2.447133 91.850312 7.451039 -0.042368 -11.933778 -2.106556 -6.352120 20.706800 -2.163265 10.626515 -21.763289 0.000000 -0.000000 0.000000 2.412185 -0.486716 -11.986302 -5.300333 -0.232531 26.212998 0.676694 -14.825455 -32.338713 0.000000 -0.000000 0.000000 -1.729446 -0.975790 9.246542 -0.306229 -2.484833 -8.515045 0.622677 0.461140 -0.331503 0.017629 0.890485 3.344519 2.628038 1.364502 3.356972 -4.661081 3.910197 -12.855373 -13.852863 -8.528015 -18.933168 93.125440 -56.900148 -63.201794 -36.732492 5.773391 14.294850 1.511036 -2.286175 -9.193799 13.396340 5.448046 -17.421452 -80.373475 56.597159 -53.415007 49.683658 1.007349 1.862104 
-0.471351 0.674738 0.962305 86.212104 -2.746672 91.047314 6.917021 -0.150000 -10.585405 -1.932324 -7.725136 19.475963 -1.706912 11.694013 -21.380753 0.000000 -0.000000 0.000000 2.299756 -0.842128 -10.611673 -5.136822 0.160078 25.374770 1.138671 -15.452950 -32.070869 0.000000 -0.000000 0.000000 -1.167137 -0.671546 8.218506 -1.629298 -2.321922 -7.835503 -0.220887 1.021643 -0.185395 -0.727697 -0.244077 5.845480 4.212086 1.336067 2.893906 -3.201570 0.688670 -13.339662 -11.967212 -10.795456 -18.323210 80.324403 -56.498765 -52.797741 -36.110019 6.441527 15.491877 -0.848343 0.037381 -8.058571 13.147355 3.414207 -16.941413 -62.818173 54.050915 -38.065895 48.187199 -0.752920 2.934976 
-0.471170 0.674805 0.964108 86.681845 -2.897837 90.388590 6.638629 -0.478334 -9.501252 -2.020897 -9.086960 18.583499 -1.128630 13.263438 -20.829107 0.000000 -0.000000 0.000000 2.329455 -1.093957 -9.356257 -4.838523 0.854501 24.369257 1.414573 -16.391509 -31.628618 0.000000 -0.000000 0.000000 -0.571661 -0.212086 6.655541 -2.805706 -2.040551 -6.634211 -1.042778 1.849085 -0.426000 -1.557526 -1.585033 9.434282 5.955687 1.180072 2.226372 -1.048252 -3.194688 -13.750731 -10.397348 -12.760283 -17.671551 64.352606 -54.193933 -38.207591 -36.318793 7.931981 16.359004 -3.905266 3.296183 -6.070388 13.437864 0.608682 -16.488316 -46.693476 47.753677 -23.818299 48.245619 -1.748176 1.944688 
-0.471069 0.674630 0.966727 86.951496 -3.058610 89.395010 6.387143 -0.419631 -7.894036 -1.865911 -10.296711 17.488988 -0.815693 14.192478 -20.274780 0.000000 -0.000000 0.000000 2.473915 -1.486515 -7.630050 -4.927283 1.515690 23.057821 0.851805 -17.308287 -31.474624 0.000000 -0.000000 0.000000 -0.083354 0.647202 5.397190 -4.010480 -1.577307 -5.366765 -1.829124 2.773624 -0.756857 -2.157988 -2.301651 13.508123 7.816625 0.632441 1.374684 1.699007 -7.205391 -14.204424 -9.256906 -15.118069 -17.519194 47.902355 -48.928006 -24.670982 -36.328217 8.387298 16.623044 -7.047355 6.673923 -3.782902 15.327708 -2.427168 -16.356799 -36.012333 39.185519 -16.599203 45.153584 0.742651 -2.200972 
-0.470416 0.674963 0.968645 87.282090 -3.382978 88.406959 5.859485 0.067312 -6.085413 -1.268000 -11.593706 15.977822 -0.901620 14.709134 -19.601654 0.000000 -0.000000 0.000000 2.301504 -2.326344 -5.858294 -5.035440 1.979434 21.675119 1.389958 -16.912477 -30.982197 0.000000 -0.000000 0.000000 0.014076 1.597511 4.303046 -4.907542 -1.205311 -4.073129 -2.388115 3.750689 -0.938737 -2.454809 -2.813740 16.871568 9.300010 -0.367141 0.380422 4.952013 -10.435364 -14.936924 -8.885546 -17.753169 -17.275897 35.310600 -41.020311 -15.258963 -36.374514 6.845402 13.736081 -9.995274 8.866508 -2.728629 17.537812 -4.050091 -16.960259 -28.828217 30.931594 -12.621174 39.991773 2.186469 -5.564253 
